:SAMPLES-PER-SECOND 30
:FULLY-SPECIFIED
:DEGREES
249
root  40.8922 36.9995 4.50311 75.2931 83.7635 84.55
RightUpLeg  10.9999 -4.75576 -10.5341
RightLeg  51.1035 3.72507 4.60535
RightFoot  -3.5362 -0.916387 13.8907
RightToes  6.35927e-011 1.30204e-014 -6.03759e-014
Spine  4.95297 2.27427 -0.461168
Spine1  11.7565 3.53445 -5.2183
HEad  -15.3679 0.655308 1.88674
LeftShoulder1  -0.697116 5.36423 -31.3134
LeftArm  -9.2947 11.6471 -28.7009
LeftForeArm  92.5426 -78.8584 -106.205
LeftHand  -0.317747 1.42703 9.21906
RightShoulder  -0.824639 -5.75013 30.0832
RightArm  -5.77798 -22.2928 34.2794
RightForeArm  106.782 72.3959 139.899
RightHand  -0.401687 3.1231 -5.70393
LeftUpLeg  -16.4023 -2.47242 -7.92591
LeftLeg  27.2715 1.6469 1.27007
LeftFoot  -1.35705 -0.357204 4.20163
LeftToes  -7.16024e-010 4.79583e-011 -5.98286e-011
250
root  41.9424 37.0493 4.4653 71.0202 81.9474 79.4107
RightUpLeg  1.64122 -3.57321 -12.5032
RightLeg  62.4042 3.09683 5.89168
RightFoot  6.6526 -1.493 9.59409
RightToes  6.35927e-011 1.30204e-014 -6.03759e-014
Spine  5.82095 2.37334 -2.70554
Spine1  11.1596 3.45356 -5.99102
HEad  -16.5941 1.5271 2.22212
LeftShoulder1  -0.659529 5.28346 -30.9045
LeftArm  -9.34784 10.5213 -28.088
LeftForeArm  91.7863 -78.8609 -105.829
LeftHand  -0.311053 1.55234 9.30219
RightShoulder  -0.801484 -5.70132 29.8383
RightArm  -5.26625 -20.6395 34.8049
RightForeArm  104.73 72.7384 138.734
RightHand  -0.466852 3.65801 -6.24503
LeftUpLeg  -15.6795 -2.01575 -9.75317
LeftLeg  27.6618 2.12213 1.56477
LeftFoot  -3.11253 -0.283885 4.21441
LeftToes  -7.16024e-010 4.79583e-011 -5.98286e-011
251
root  42.9521 37.1918 4.45614 67.4557 81.0531 75.7549
RightUpLeg  -5.80004 -3.01141 -13.1216
RightLeg  68.388 2.71284 6.82559
RightFoot  8.0012 -1.02458 6.25121
RightToes  6.35927e-011 1.30204e-014 -6.03759e-014
Spine  7.91903 2.27969 -3.88868
Spine1  10.1681 3.19992 -6.49605
HEad  -17.8874 2.52981 2.28584
LeftShoulder1  -0.624374 5.20958 -30.4458
LeftArm  -9.65928 9.12781 -27.8688
LeftForeArm  91.2303 -78.8715 -105.461
LeftHand  -0.310247 1.62255 9.44227
RightShoulder  -0.774001 -5.64676 29.4729
RightArm  -5.06356 -18.7721 35.3094
RightForeArm  103.778 72.8891 138.196
RightHand  -0.472179 3.3717 -6.49583
LeftUpLeg  -13.9115 -1.97318 -10.6013
LeftLeg  27.5935 2.8698 1.98793
LeftFoot  -4.95898 -0.204576 4.1892
LeftToes  -7.16024e-010 4.79583e-011 -5.98286e-011
252
root  43.9795 37.4313 4.45144 66.061 81.2249 74.1992
RightUpLeg  -11.9237 -3.50388 -12.5701
RightLeg  69.0207 2.72773 7.10612
RightFoot  4.05878 -0.761702 5.89416
RightToes  6.35927e-011 1.30204e-014 -6.03759e-014
Spine  9.77798 2.00612 -3.95113
Spine1  9.27848 2.83715 -6.36646
HEad  -19.0774 3.14808 2.20634
LeftShoulder1  -0.553376 5.03017 -30.0969
LeftArm  -9.95813 7.46251 -28.4479
LeftForeArm  89.6054 -78.9816 -103.504
LeftHand  -0.324406 1.5481 9.69946
RightShoulder  -0.712664 -5.50823 28.879
RightArm  -5.56961 -17.5405 35.8143
RightForeArm  103.639 72.9535 138.002
RightHand  -0.473099 3.34387 -6.52692
LeftUpLeg  -11.6781 -2.22096 -10.4919
LeftLeg  26.643 3.28966 2.1549
LeftFoot  -7.22296 -0.0873722 3.61655
LeftToes  -7.16024e-010 4.79583e-011 -5.98286e-011
253
root  45.0141 37.6717 4.45069 66.7357 82.0338 74.4645
RightUpLeg  -17.0429 -4.42534 -11.3229
RightLeg  64.9674 2.91466 6.26271
RightFoot  0.810777 -0.725869 6.8355
RightToes  6.35927e-011 1.30204e-014 -6.03759e-014
Spine  11.3403 1.58931 -3.35626
Spine1  8.38567 2.40875 -6.2097
HEad  -19.6947 3.2045 2.31096
LeftShoulder1  -0.45779 4.78225 -29.6416
LeftArm  -10.0637 6.0746 -29.5599
LeftForeArm  88.5885 -79.0727 -101.939
LeftHand  -0.340354 1.445 9.93198
RightShoulder  -0.639749 -5.32882 28.3426
RightArm  -6.38079 -16.9231 35.9335
RightForeArm  103.582 72.9075 138.118
RightHand  -0.517438 3.87204 -6.74119
LeftUpLeg  -9.66398 -2.11367 -9.80574
LeftLeg  25.5834 2.8019 1.82319
LeftFoot  -9.10938 -0.00350097 3.0314
LeftToes  -7.16024e-010 4.79583e-011 -5.98286e-011
254
root  46.1149 37.9703 4.45514 68.4737 83.775 76.943
RightUpLeg  -18.7861 -5.28496 -9.18479
RightLeg  55.9834 2.57931 3.75251
RightFoot  -0.0648137 -0.610538 6.1667
RightToes  6.35927e-011 1.30204e-014 -6.03759e-014
Spine  13.944 0.906261 -1.75574
Spine1  7.41167 1.75967 -5.93854
HEad  -19.9695 3.02887 2.43188
LeftShoulder1  -0.379657 4.5786 -29.1761
LeftArm  -9.95121 5.18439 -30.484
LeftForeArm  89.6935 -79.0758 -102.485
LeftHand  -0.347016 1.34753 9.8956
RightShoulder  -0.592554 -5.20722 28.0349
RightArm  -7.13255 -16.4435 35.4458
RightForeArm  103.813 72.6786 138.759
RightHand  -0.552217 4.17739 -6.96723
LeftUpLeg  -6.20913 -1.30881 -8.18896
LeftLeg  24.3308 1.32973 1.02655
LeftFoot  -10.3227 0.0343458 3.16408
LeftToes  -7.16024e-010 4.79583e-011 -5.98286e-011
255
root  47.2718 38.1949 4.4378 74.0692 84.8803 82.577
RightUpLeg  -19.3556 -5.86018 -7.88928
RightLeg  43.2895 1.80509 1.50748
RightFoot  -0.750236 -0.506832 5.41837
RightToes  6.35927e-011 1.30204e-014 -6.03759e-014
Spine  14.7265 0.380843 -1.04674
Spine1  7.5889 1.12979 -4.68528
HEad  -21.3226 3.19565 1.56714
LeftShoulder1  -0.375566 4.55667 -29.5136
LeftArm  -9.59715 4.34365 -30.6016
LeftForeArm  92.5028 -79.0265 -104.453
LeftHand  -0.355635 1.16677 9.72762
RightShoulder  -0.548611 -5.10712 27.4292
RightArm  -8.00407 -16.2017 34.823
RightForeArm  105.166 72.1859 140.187
RightHand  -0.529042 4.04027 -6.77387
LeftUpLeg  -3.40994 -0.704954 -7.17247
LeftLeg  22.8536 0.11361 0.481933
LeftFoot  -11.4759 0.0737536 3.75914
LeftToes  -7.16024e-010 4.79583e-011 -5.98286e-011
256
root  48.4538 38.2547 4.45835 85.6166 85.1689 93.4835
RightUpLeg  -19.2543 -5.93306 -7.84032
RightLeg  28.5628 1.28193 0.607317
RightFoot  -1.27831 -0.570699 6.36936
RightToes  6.35927e-011 1.30204e-014 -6.03759e-014
Spine  14.5923 0.0639967 -1.35326
Spine1  8.01058 0.485115 -2.87026
HEad  -22.5598 3.10488 0.600669
LeftShoulder1  -0.404855 4.61504 -30.2839
LeftArm  -8.99124 3.89014 -30.4116
LeftForeArm  96.9458 -78.9098 -107.669
LeftHand  -0.374038 0.990795 9.84403
RightShoulder  -0.518694 -5.06106 26.5071
RightArm  -8.98766 -16.8817 34.4674
RightForeArm  107.661 71.3351 142.475
RightHand  -0.507274 4.23582 -6.38985
LeftUpLeg  -1.68373 -0.635836 -6.9638
LeftLeg  21.939 -0.800116 0.133897
LeftFoot  -13.074 0.141495 4.19256
LeftToes  -7.16024e-010 4.79583e-011 -5.98286e-011
257
root  49.6672 38.1557 4.61456 86.4608 84.3228 93.6185
RightUpLeg  -19.0704 -4.18152 -8.73265
RightLeg  14.8569 1.51599 -0.177247
RightFoot  -1.52883 -0.672348 7.70747
RightToes  6.35927e-011 1.30204e-014 -6.03759e-014
Spine  14.5984 0.589326 -3.01811
Spine1  8.1056 0.513733 -0.936725
HEad  -23.6164 2.70788 -0.174996
LeftShoulder1  -0.433803 4.67622 -30.8621
LeftArm  -8.24728 4.28946 -30.3621
LeftForeArm  101.94 -78.6591 -111.872
LeftHand  -0.381477 1.05286 10.1821
RightShoulder  -0.52847 -5.11726 25.9587
RightArm  -9.6766 -18.3401 34.1122
RightForeArm  110.052 70.3123 144.867
RightHand  -0.542776 5.07215 -6.31572
LeftUpLeg  -0.45604 0.596823 -7.34844
LeftLeg  22.0481 -1.79129 -0.377971
LeftFoot  -14.6267 0.214093 4.39997
LeftToes  -7.16024e-010 4.79583e-011 -5.98286e-011
258
root  50.9087 37.9064 4.84647 79.4228 82.9163 86.4061
RightUpLeg  -19.0969 -4.03841 -8.80909
RightLeg  5.59636 5.44911 -2.02621
RightFoot  -2.61328 -0.663277 8.43159
RightToes  6.35927e-011 1.30204e-014 -6.03759e-014
Spine  15.297 1.48299 -4.96196
Spine1  7.67776 1.03293 0.165105
HEad  -24.2106 2.42454 -0.416389
LeftShoulder1  -0.453397 4.73438 -30.7216
LeftArm  -7.53769 6.02697 -30.4702
LeftForeArm  105.987 -78.2655 -116.224
LeftHand  -0.365537 1.24825 10.189
RightShoulder  -0.567849 -5.21407 26.4361
RightArm  -9.64021 -20.0618 33.25
RightForeArm  111.748 69.4541 146.637
RightHand  -0.578656 5.75002 -6.34086
LeftUpLeg  0.978303 2.58996 -8.04529
LeftLeg  23.1858 -2.59814 -0.874051
LeftFoot  -16.2903 0.314997 4.96993
LeftToes  -7.16024e-010 4.79583e-011 -5.98286e-011
259
root  52.193 37.5609 4.93371 77.3879 82.2517 84.6287
RightUpLeg  -19.6554 -5.24796 -8.0865
RightLeg  3.23031 10.2541 -3.25529
RightFoot  -3.30155 -0.594063 8.12435
RightToes  6.35927e-011 1.30204e-014 -6.03759e-014
Spine  15.7202 1.51407 -4.52726
Spine1  8.28284 1.19585 -0.156258
HEad  -24.7937 2.43823 -0.580983
LeftShoulder1  -0.550923 4.98365 -31.0131
LeftArm  -7.01371 8.12385 -30.0337
LeftForeArm  107.716 -77.9004 -119.119
LeftHand  -0.35538 1.20728 9.81382
RightShoulder  -0.613576 -5.30877 27.2719
RightArm  -9.28616 -21.5565 32.1939
RightForeArm  113.507 68.8293 147.884
RightHand  -0.547365 5.69842 -6.03889
LeftUpLeg  2.67318 2.76219 -8.60017
LeftLeg  24.8634 -2.17119 -0.739962
LeftFoot  -18.9733 0.483198 5.54095
LeftToes  -7.16024e-010 4.79583e-011 -5.98286e-011
